<svg width="108" height="25" viewBox="0 0 108 25" fill="none" xmlns="http://www.w3.org/2000/svg">
<path fill-rule="evenodd" clip-rule="evenodd" d="M8.05616 6.1387C9.57262 6.1387 10.7573 4.90658 10.7573 3.43751C10.7573 1.92106 9.52523 0.736328 8.05616 0.736328C6.5871 0.736328 5.35498 1.92106 5.35498 3.43751C5.35498 4.95397 6.5871 6.1387 8.05616 6.1387ZM3.74375 13.1051H16.1123H16.1597V19.0287C16.1597 20.5452 14.9276 21.7299 13.4585 21.7299H2.70119C1.18473 21.7299 0 20.4978 0 19.0287V17.9388H12.3686V16.3275H0V10.4039C0 8.88742 1.23212 7.70269 2.70119 7.70269H13.4111C14.9276 7.70269 16.1123 8.93481 16.1123 10.4039V11.4938H3.74375V13.1051Z" fill="#D90000"/>
<path d="M29.713 13.152V12.0146H24.2158V21.682H25.5901V17.0379H29.0495V15.9006H25.5901V13.152H29.713Z" fill="#D90000"/>
<path fill-rule="evenodd" clip-rule="evenodd" d="M32.7459 12.394C32.7459 11.9201 32.3194 11.541 31.8929 11.541C31.419 11.541 30.9925 11.9201 30.9925 12.394C30.9925 12.8679 31.419 13.247 31.8929 13.247C32.3194 13.247 32.7459 12.8679 32.7459 12.394ZM32.6985 21.682V14.621H30.4238V15.5214C30.7082 15.5214 31.0873 15.6162 31.3242 15.6162V21.6347H32.6985V21.682Z" fill="#D90000"/>
<path d="M40.897 21.6826V16.8015C40.897 15.3799 40.0914 14.5269 38.6223 14.5269C37.5797 14.5269 36.8215 15.0007 36.395 15.6642L36.3476 14.669H35.0681V21.73H36.395V17.6545C36.395 16.5646 37.1532 15.7116 38.1484 15.7116C39.0488 15.7116 39.4753 16.1855 39.4753 17.228V21.73H40.897V21.6826Z" fill="#D90000"/>
<path fill-rule="evenodd" clip-rule="evenodd" d="M48.1475 21.6826V16.8489C48.1475 15.1903 47.2945 14.5269 45.4464 14.5269C44.546 14.5269 43.8825 14.669 43.2191 14.8586V15.9011C43.7877 15.7116 44.4512 15.522 45.2094 15.522C46.4415 15.522 46.868 15.9485 46.868 16.8489V17.228C46.7733 17.228 46.252 17.228 46.1572 17.228C45.3516 17.228 44.6881 17.3228 44.1195 17.5598C43.1243 17.9389 42.6504 18.6023 42.6504 19.6923C42.6504 21.2561 43.6456 21.8248 44.8303 21.8248C45.7781 21.8248 46.5363 21.3983 46.868 21.0666L46.9154 21.6826H48.1475ZM46.8207 20.1185C46.4889 20.4502 45.8729 20.782 45.2094 20.782C44.309 20.782 44.0247 20.2133 44.0247 19.6446C44.0247 18.6021 44.7829 18.2229 46.3468 18.2229H46.868V20.1185H46.8207Z" fill="#D90000"/>
<path d="M56.2036 21.6826V16.8015C56.2036 15.3799 55.398 14.5269 53.9289 14.5269C52.8864 14.5269 52.1282 15.0007 51.7017 15.6642L51.6543 14.669H50.3748V21.73H51.7017V17.6545C51.7017 16.5646 52.4599 15.7116 53.4551 15.7116C54.3554 15.7116 54.782 16.1855 54.782 17.228V21.73H56.2036V21.6826Z" fill="#D90000"/>
<path d="M63.3595 21.6825V20.64H59.3314C59.7579 20.0239 60.4687 19.0761 61.227 18.1284C62.08 17.0858 62.933 16.0906 63.2647 15.7115V14.6689H57.9571V15.7115H61.6061C61.3217 16.0906 60.6109 16.8488 59.8527 17.844C58.9523 19.0288 58.1467 20.1661 57.8149 20.6874V21.7299H63.3595V21.6825Z" fill="#D90000"/>
<path fill-rule="evenodd" clip-rule="evenodd" d="M70.7866 21.7124V14.6514H69.5071L69.4597 15.2675C69.0806 14.841 68.4645 14.5093 67.5167 14.5093C65.9055 14.5093 64.626 15.8362 64.626 18.1582C64.626 20.6699 65.8107 21.7124 67.4219 21.7124C68.3223 21.7124 68.9858 21.3807 69.4597 20.6699V21.7598C69.4597 22.9919 68.7962 23.5606 67.4219 23.5606C66.6637 23.5606 66.095 23.4184 65.7159 23.3237L65.5264 24.3662C65.9529 24.461 66.6637 24.6032 67.7063 24.6032C68.7014 24.6032 69.5071 24.3662 70.0757 23.845C70.5496 23.4184 70.7866 22.7076 70.7866 21.7124ZM69.4597 18.4425C69.4597 19.7694 68.7962 20.6698 67.8011 20.6698C66.4742 20.6698 66.1424 19.4851 66.1424 18.2055C66.1424 16.5943 66.9007 15.6939 67.9432 15.6939C68.7014 15.6939 69.1753 16.0256 69.4597 16.3574V18.4425Z" fill="#D90000"/>
<path d="M76.723 15.9006V14.6211C76.6283 14.6211 76.4387 14.5737 76.2018 14.5737C75.3014 14.5737 74.5905 15.1424 74.2114 15.948L74.164 14.6211H72.8845V21.6821H74.2588V17.891C74.2588 17.038 74.9223 15.9006 76.2492 15.9006C76.4387 15.8532 76.6757 15.9006 76.723 15.9006Z" fill="#D90000"/>
<path d="M83.8316 21.6821V14.6211H82.4573V18.744C82.4573 19.7865 81.6991 20.6869 80.6565 20.6869C79.7561 20.6869 79.3296 20.2604 79.3296 19.2178V14.6685H77.9553V19.5022C77.9553 21.066 78.7609 21.8243 80.23 21.8243C81.2726 21.8243 82.0308 21.3978 82.4573 20.6869V21.6821H83.8316Z" fill="#D90000"/>
<path fill-rule="evenodd" clip-rule="evenodd" d="M92.2668 18.0337C92.2668 15.7116 91.2716 14.4795 89.5182 14.4795C88.3809 14.4795 87.7174 15.0956 87.4331 15.6642L87.3857 14.6217H86.1062V24.4786H87.4331V21.2561C87.8596 21.5879 88.4283 21.8248 89.2339 21.8248C91.2242 21.8248 92.2668 20.4505 92.2668 18.0337ZM90.8451 18.081C90.8451 18.6023 90.7977 19.0762 90.6556 19.5027C90.4186 20.2609 89.8973 20.7348 88.9969 20.7348C88.3809 20.7348 87.907 20.4979 87.4805 20.0714V18.2706C87.4805 16.7541 88.0965 15.6642 89.1865 15.6642C90.4186 15.6168 90.8451 16.6593 90.8451 18.081Z" fill="#D90000"/>
<path fill-rule="evenodd" clip-rule="evenodd" d="M100.418 18.0337C100.418 15.7116 99.4225 14.4795 97.6691 14.4795C96.5318 14.4795 95.8683 15.0956 95.584 15.6642L95.5366 14.6217H94.2571V24.4786H95.584V21.2561C96.0105 21.5879 96.5792 21.8248 97.3848 21.8248C99.3277 21.8248 100.418 20.4505 100.418 18.0337ZM98.9486 18.081C98.9486 18.6023 98.8538 19.0762 98.7591 19.5027C98.5221 20.2609 98.0008 20.7348 97.1004 20.7348C96.4844 20.7348 96.0105 20.4979 95.584 20.0714V18.2706C95.584 16.7541 96.2 15.6642 97.29 15.6642C98.5221 15.6168 98.9486 16.6593 98.9486 18.081Z" fill="#D90000"/>
<path fill-rule="evenodd" clip-rule="evenodd" d="M108 17.7493C108 15.6168 107.052 14.4795 105.157 14.4795C103.119 14.4795 102.029 15.9959 102.029 18.1759C102.029 20.4031 103.261 21.8722 105.394 21.8722C106.294 21.8722 106.958 21.7774 107.526 21.5879L107.242 20.5453C106.863 20.6401 106.152 20.7823 105.583 20.7823C104.256 20.7823 103.546 20.024 103.451 18.6024H107.953C108 18.318 108 18.0337 108 17.7493ZM106.578 17.6074H103.451C103.546 16.2805 104.067 15.4748 105.109 15.4748C106.105 15.4748 106.578 16.1383 106.578 17.2756V17.6074Z" fill="#D90000"/>
</svg>
