<svg width="25" height="24" viewBox="0 0 25 24" fill="none" xmlns="http://www.w3.org/2000/svg">
<g clip-path="url(#clip0_6583_22406)">
<path d="M23.7656 0H2.14458L0.955078 1.1895V19.0605L2.14458 20.25H9.20508V24H10.4621L14.7813 20.25H23.7663L24.9558 19.0605V1.1895L23.7663 0L23.7656 0ZM23.4551 18.4395L23.1446 18.75H14.2203L10.7051 21.8018V18.75H2.76558L2.45508 18.4395V1.8105L2.76558 1.5H23.1446L23.4551 1.8105V18.4395ZM14.6613 5.8485C13.8378 5.25 12.7968 5.09175 11.8023 5.41275C10.5648 5.81325 9.71358 6.999 9.68358 8.39775C9.67083 8.94375 9.80208 9.4845 10.0638 9.9615L11.3793 9.2415C11.2443 8.9955 11.1768 8.715 11.1843 8.3955C11.1993 7.68075 11.6433 7.04175 12.2636 6.84075C12.8058 6.66525 13.3421 6.74475 13.7786 7.062C14.2016 7.37025 14.4543 7.8645 14.4543 8.38575V8.46075C14.4543 8.898 14.2841 9.30825 13.9751 9.61725L13.1621 10.4303C12.4226 11.1705 12.1728 11.757 12.1728 12.7552H13.6728C13.6728 12.1545 13.7598 11.9535 14.2226 11.4908L15.0356 10.6778C15.6281 10.0852 15.9543 9.2985 15.9543 8.46075V8.38575C15.9543 7.38675 15.4706 6.43875 14.6606 5.84925L14.6613 5.8485ZM12.2051 14.25H13.7051V15.75H12.2051V14.25Z" fill="#024589"/>
</g>
<defs>
<clipPath id="clip0_6583_22406">
<rect width="24" height="24" fill="white" transform="translate(0.955078)"/>
</clipPath>
</defs>
</svg>
