<svg width="192" height="112" viewBox="0 0 192 112" fill="none" xmlns="http://www.w3.org/2000/svg">
<g clip-path="url(#clip0_6648_20149)">
<path d="M57.185 90.6541V21.3506H55.8843V90.6541H57.185Z" fill="#024589"/>
<path d="M125.154 21.3506V90.6541H126.454V21.3506H125.154Z" fill="#024589"/>
<path d="M28.9215 34.6455L26.9077 42.2877L24.9081 34.7051L24.8928 34.6455H21.8647L25.2114 45.2641L25.2288 45.32H28.4974L31.9163 34.7505L31.9501 34.6455H28.9215Z" fill="#024589"/>
<path d="M64.3367 45.5397C65.495 45.5397 67.0869 45.3282 68.0948 44.3208C68.6945 43.7211 68.9983 42.9188 68.9983 41.9367C68.9983 39.9514 67.3369 39.2293 65.8901 38.8221C65.5641 38.7314 65.2424 38.6539 64.9317 38.579C63.8494 38.3184 62.9142 38.0937 62.9142 37.5283C62.9142 37.3363 62.9786 37.1744 63.1052 37.0483C63.3989 36.7545 63.9311 36.7224 64.1463 36.7224C64.4945 36.7224 65.1337 36.7788 65.495 37.158C65.6749 37.3463 65.7593 37.5932 65.7456 37.8917L65.7408 37.9867H68.6608V37.8949C68.6534 36.7778 68.1818 35.861 67.2968 35.2439C66.5388 34.7154 65.4982 34.4248 64.3663 34.4248C62.1927 34.4248 59.9996 35.4391 59.9996 37.7045C59.9996 39.6629 61.5856 40.3776 63.1368 40.8191C63.4095 40.8955 63.6806 40.9641 63.9427 41.0306C65.0915 41.3207 66.0831 41.5707 66.0831 42.26C66.0831 42.9837 65.2645 43.2416 64.4987 43.2416C63.2402 43.2416 62.6558 42.7653 62.6051 41.6967L62.6009 41.6102H59.6899L59.691 41.7015C59.7042 44.1045 61.4411 45.5392 64.3373 45.5392L64.3367 45.5397Z" fill="#024589"/>
<path d="M74.0377 45.32V34.6455H71.1235V45.32H74.0377Z" fill="#024589"/>
<path d="M81.7511 45.5397C84.7106 45.5397 86.7207 43.8218 86.8726 41.163L86.8784 41.067H83.8287L83.8213 41.1498C83.7137 42.3476 82.9568 43.0069 81.6894 43.0069C81.0148 43.0069 80.4615 42.7949 80.0438 42.3777C79.5116 41.8455 79.2188 40.9952 79.2188 39.9825C79.2188 38.9698 79.5116 38.1196 80.0438 37.5874C80.4615 37.1691 81.0153 36.9571 81.6894 36.9571C82.902 36.9571 83.6794 37.5178 83.8219 38.4956L83.8329 38.5737H86.8758L86.8726 38.4804C86.7951 35.9417 84.208 34.4248 81.7511 34.4248C78.5152 34.4248 76.1665 36.7619 76.1665 39.9825C76.1665 41.5401 76.7266 42.9584 77.7436 43.9753C78.7668 44.9991 80.1529 45.5397 81.7511 45.5397Z" fill="#024589"/>
<path d="M92.1057 45.32V40.9997H96.2958V45.32H99.2774V34.6455H96.2958V38.4663H92.1057V34.6455H89.1235V45.32H92.1057Z" fill="#024589"/>
<path d="M110.802 45.32V42.7872H105.026V40.9696H110.169V38.6726H105.026V37.0169H110.654V34.6455H102.111V45.32H110.802Z" fill="#024589"/>
<path d="M116.182 45.3205V41.4996H118.163C119.368 41.4996 119.539 42.5176 119.612 43.5609C119.621 43.6453 119.775 45.3205 119.775 45.3205H122.576C122.576 45.3205 122.367 43.0461 122.353 42.8578C122.232 41.4812 121.746 40.6109 120.945 40.3202C121.889 39.8687 122.472 38.884 122.472 37.6909C122.472 36.8739 122.209 36.1961 121.691 35.6787C121.025 35.0131 119.965 34.6465 118.707 34.6465H113.267V45.321H116.181L116.182 45.3205ZM116.182 39.2021V37.0174H118.266C118.706 37.0174 119.071 37.1403 119.293 37.3623C119.468 37.5374 119.557 37.7716 119.557 38.058C119.557 38.8065 119.151 39.2021 118.383 39.2021H116.181H116.182Z" fill="#024589"/>
<path d="M122.353 58.8627C122.232 57.486 121.746 56.6157 120.945 56.3251C121.889 55.8736 122.472 54.8889 122.472 53.6958C122.472 52.8788 122.209 52.2015 121.691 51.6836C121.025 51.0179 119.965 50.6514 118.707 50.6514H113.267V61.3259H116.181V57.505H118.163C119.368 57.505 119.539 58.523 119.612 59.5663C119.62 59.6512 119.774 61.3259 119.774 61.3259H122.575C122.575 61.3259 122.366 59.0515 122.353 58.8632L122.353 58.8627ZM119.557 54.0629C119.557 54.8114 119.151 55.2064 118.383 55.2064H116.181V53.0217H118.266C118.706 53.0217 119.071 53.1441 119.293 53.3672C119.467 53.5423 119.556 53.7765 119.556 54.0629H119.557Z" fill="#024589"/>
<path d="M65.5355 50.6686L62.4906 54.5232V50.667H59.8491V61.3415H62.4906V58.0513L63.3888 57.0016L65.7375 61.3415H69.032L65.1853 54.8998L69.1438 50.667L65.5355 50.6686Z" fill="#024589"/>
<path d="M86.6692 61.3415H89.2785V50.667H86.6977L84.5927 54.7895L82.4523 50.667H79.8989V61.3415H82.4982V55.6166L84.5779 58.9099H84.6127L86.6692 55.6867V61.3415Z" fill="#024589"/>
<path d="M98.186 50.667L96.081 54.7895L93.9406 50.667H91.3872V61.3415H93.9865V55.6166L96.0667 58.9099H96.101L98.1575 55.6867V61.3415H100.767V50.667H98.186Z" fill="#024589"/>
<path d="M105.767 58.8087V56.9916H110.91V54.6941H105.767V53.0384H111.396V50.667H102.852V61.3415H111.543V58.8087H105.767Z" fill="#024589"/>
<path d="M67.4014 71.4882C68.1873 71.0241 68.6541 70.2577 68.6541 69.3948C68.6541 68.6442 68.4241 68.0366 67.9705 67.5904C67.3276 66.958 66.251 66.6494 64.7705 66.6731H59.7729V77.3476H64.9039C66.4288 77.3476 67.5533 76.9964 68.2459 76.3043C68.7997 75.75 69.0803 74.9731 69.0803 73.9947C69.0803 72.8337 68.4273 71.8717 67.4014 71.4882ZM64.7135 70.8025H62.6881V68.9707H64.7135C64.9535 68.9707 65.2858 69.0171 65.5068 69.2381C65.6614 69.3921 65.74 69.6131 65.74 69.8937C65.74 70.6111 65.0949 70.802 64.7141 70.802L64.7135 70.8025ZM66.1656 73.8913C66.1656 74.6218 65.7146 74.9762 64.7869 74.9762H62.6881V72.7478H64.7869C65.2869 72.7478 65.6556 72.8633 65.8839 73.0917C66.0712 73.2789 66.1661 73.5474 66.1661 73.8913H66.1656Z" fill="#024589"/>
<path d="M86.1043 66.6729L84.0747 70.8191L82.044 66.6729H78.729L82.6168 73.372V77.3473H85.532V73.372L89.4193 66.6729H86.1043Z" fill="#024589"/>
<path d="M93.3189 74.814V72.997H98.4626V70.6999H93.3189V69.0443H98.9478V66.6729H90.4048V77.3473H99.095V74.814H93.3189Z" fill="#024589"/>
<path d="M119.825 66.6729H119.734V66.7641V72.9363L116.23 66.7193L116.204 66.6729H116.15H113.344H113.253V66.7641V77.2566V77.3473H113.344H115.915H116.006V77.2566V71.0132L119.511 77.3009L119.536 77.3473H119.59H122.397H122.487V77.2566V66.7641V66.6729H122.397H119.825Z" fill="#024589"/>
<path d="M110.567 74.8822C110.447 73.5061 109.96 72.6353 109.159 72.3447C110.102 71.8932 110.686 70.9084 110.686 69.7153C110.686 68.8983 110.422 68.2205 109.904 67.7031C109.239 67.0375 108.179 66.6709 106.92 66.6709H101.48V77.3454H104.395V73.5246H106.376C107.581 73.5246 107.753 74.5425 107.825 75.5858C107.834 75.6702 107.988 77.3454 107.988 77.3454H110.789C110.789 77.3454 110.58 75.071 110.567 74.8827L110.567 74.8822ZM107.77 70.0824C107.77 70.8304 107.364 71.2259 106.597 71.2259H104.395V69.0418H106.48C106.918 69.0418 107.283 69.1641 107.506 69.3862C107.681 69.5613 107.769 69.7955 107.769 70.0819L107.77 70.0824Z" fill="#024589"/>
<path d="M138.319 40.9096C138.319 44.0058 136.898 45.5459 133.667 45.5459C130.437 45.5459 129.016 44.0058 129.016 40.9096V34.6436H131.797V41.0742C131.797 42.4503 132.291 43.1534 133.667 43.1534C135.043 43.1534 135.537 42.4503 135.537 41.0742V34.6436H138.319V40.9096Z" fill="#024589"/>
<path d="M160.914 45.3223H159.254L159.107 43.9927C158.39 45.0243 156.935 45.5465 155.978 45.5465C152.733 45.5465 150.654 43.0786 150.654 39.983C150.654 36.8874 152.733 34.4189 155.978 34.4189C158.191 34.4189 160.57 35.5857 160.809 38.2778H158.028C157.923 37.3653 157.056 36.812 155.919 36.812C154.124 36.812 153.436 38.3822 153.436 39.9825C153.436 41.5827 154.124 43.153 155.919 43.153C157.295 43.153 158.207 42.51 158.372 41.5379H156.427V39.656H160.914V45.3223Z" fill="#024589"/>
<path d="M75.2453 50.667H72.5596L69.022 61.3415H71.7963L72.3639 59.4601H75.6483L76.258 61.3415H79.2386L75.2453 50.667ZM75.1066 57.2506H72.7964C72.817 57.1699 73.7901 53.7336 73.7901 53.7336H74.029C74.029 53.7336 74.9821 56.806 75.1071 57.2506H75.1066Z" fill="#024589"/>
<path d="M75.9934 66.6709H73.3076L69.77 77.3454H72.5444L73.1119 75.464H76.3963L77.0061 77.3454H79.9867L75.9928 66.6709H75.9934ZM75.8546 73.2545H73.5444C73.565 73.1738 74.5381 69.7375 74.5381 69.7375H74.7771C74.7771 69.7375 75.7302 72.8099 75.8552 73.2545H75.8546Z" fill="#024589"/>
<path d="M46.9738 45.3205V41.4996H48.9554C50.1601 41.4996 50.3315 42.5176 50.4043 43.5609C50.4127 43.6453 50.5667 45.3205 50.5667 45.3205H53.368C53.368 45.3205 53.1586 43.0461 53.1454 42.8578C53.0236 41.4812 52.5383 40.6109 51.7371 40.3202C52.6807 39.8687 53.2636 38.884 53.2636 37.6909C53.2636 36.8739 53.0009 36.1961 52.4829 35.6787C51.8173 35.0131 50.7571 34.6465 49.4992 34.6465H44.0591V45.321H46.9732L46.9738 45.3205ZM46.9738 39.2021V37.0174H49.0582C49.4981 37.0174 49.8631 37.1403 50.0852 37.3623C50.2597 37.5374 50.3489 37.7716 50.3489 38.058C50.3489 38.8065 49.9427 39.2021 49.1753 39.2021H46.9732H46.9738Z" fill="#024589"/>
<path d="M42.0813 45.32V42.7872H36.3063V40.9696H41.4494V38.6726H36.3063V37.0169H41.9342V34.6455H33.3911V45.32H42.0813Z" fill="#024589"/>
<path d="M166.717 45.5397C167.875 45.5397 169.467 45.3282 170.475 44.3208C171.074 43.7211 171.378 42.9188 171.378 41.9367C171.378 39.9514 169.717 39.2293 168.27 38.8221C167.944 38.7314 167.622 38.6539 167.312 38.579C166.229 38.3184 165.294 38.0937 165.294 37.5283C165.294 37.3363 165.358 37.1744 165.485 37.0483C165.779 36.7545 166.311 36.7224 166.526 36.7224C166.874 36.7224 167.514 36.7788 167.875 37.158C168.055 37.3463 168.22 37.5932 168.206 37.8917L168.201 37.9867H171.041V37.8949C171.033 36.7778 170.562 35.861 169.677 35.2439C168.919 34.7154 167.878 34.4248 166.746 34.4248C164.573 34.4248 162.379 35.4391 162.379 37.7045C162.379 39.6629 163.965 40.3776 165.517 40.8191C165.789 40.8955 166.06 40.9641 166.323 41.0306C167.471 41.3207 168.463 41.5707 168.463 42.26C168.463 42.9837 167.644 43.2416 166.879 43.2416C165.62 43.2416 165.036 42.7653 164.985 41.6967L164.981 41.6102H162.07L162.071 41.7015C162.084 44.1045 163.821 45.5392 166.717 45.5392L166.717 45.5397Z" fill="#024589"/>
<path d="M140.144 34.6436H142.999L146.707 41.2219H146.737V34.6436H149.353V45.3191H146.497L142.79 38.6653H142.76V45.3191H140.144V34.6436Z" fill="#024589"/>
</g>
<defs>
<clipPath id="clip0_6648_20149">
<rect width="191.324" height="112" fill="white"/>
</clipPath>
</defs>
</svg>
