<!--
<svg id="visual" viewBox="0 0 960 540" width="100%" height="100%" xmlns="http://www.w3.org/2000/svg"
     version="1.1">
    <path d="M0 407L22.8 406C45.7 405 91.3 403 137 410.5C182.7 418 228.3 435 274 436.8C319.7 438.7 365.3 425.3 411.2 420.8C457 416.3 503 420.7 548.8 411C594.7 401.3 640.3 377.7 686 375C731.7 372.3 777.3 390.7 823 405.8C868.7 421 914.3 433 937.2 439L960 445L960 541L937.2 541C914.3 541 868.7 541 823 541C777.3 541 731.7 541 686 541C640.3 541 594.7 541 548.8 541C503 541 457 541 411.2 541C365.3 541 319.7 541 274 541C228.3 541 182.7 541 137 541C91.3 541 45.7 541 22.8 541L0 541Z"
          fill="#0066FF" stroke-linecap="round" stroke-linejoin="miter"></path>
</svg>-->
<svg xmlns="http://www.w3.org/2000/svg" viewBox="0 0 1440 320">
    <path fill="#1a1a1a" fill-opacity="1"
          d="M0,160L40,170.7C80,181,160,203,240,186.7C320,171,400,117,480,117.3C560,117,640,171,720,186.7C800,203,880,181,960,176C1040,171,1120,181,1200,176C1280,171,1360,149,1400,138.7L1440,128L1440,320L1400,320C1360,320,1280,320,1200,320C1120,320,1040,320,960,320C880,320,800,320,720,320C640,320,560,320,480,320C400,320,320,320,240,320C160,320,80,320,40,320L0,320Z"></path>
</svg>