<?xml version="1.0" standalone="no"?>
<!DOCTYPE svg PUBLIC "-//W3C//DTD SVG 20010904//EN"
 "http://www.w3.org/TR/2001/REC-SVG-20010904/DTD/svg10.dtd">
<svg version="1.0" xmlns="http://www.w3.org/2000/svg"
 width="1725.000000pt" height="670.000000pt" viewBox="0 0 1725.000000 670.000000"
 preserveAspectRatio="xMidYMid meet">

<g transform="translate(0.000000,670.000000) scale(0.100000,-0.100000)"
fill="#000000" stroke="none">
<path d="M2755 6649 c-630 -56 -1214 -309 -1668 -725 -684 -627 -1053 -1619
-1024 -2749 10 -346 44 -611 118 -907 292 -1162 1076 -1957 2150 -2177 212
-44 334 -55 609 -55 346 -1 523 20 828 99 459 120 893 367 1227 700 511 508
814 1194 912 2067 22 193 25 761 5 943 -92 853 -389 1532 -887 2030 -518 518
-1215 790 -2010 784 -88 -1 -205 -6 -260 -10z m570 -692 c195 -37 344 -86 505
-167 660 -331 1108 -1111 1200 -2095 13 -141 13 -515 -1 -670 -90 -1051 -575
-1859 -1301 -2170 -256 -109 -493 -151 -807 -142 -192 5 -288 19 -445 61 -709
195 -1243 829 -1455 1728 -69 291 -86 449 -86 813 0 349 12 483 70 770 88 440
257 838 484 1142 310 415 730 667 1228 738 128 18 495 13 608 -8z"/>
<path d="M11657 6553 c-3 -6 2154 -6328 2185 -6406 7 -16 39 -17 476 -17 364
0 472 3 479 13 6 6 545 1448 1198 3202 653 1755 1190 3196 1192 3203 4 10 -89
12 -458 10 l-462 -3 -503 -1410 c-277 -775 -565 -1581 -640 -1790 -360 -1000
-559 -1622 -744 -2322 -6 -24 -15 -43 -19 -43 -5 0 -14 21 -20 48 -47 189
-191 700 -307 1087 -201 667 -347 1118 -1101 3405 l-338 1025 -467 3 c-257 1
-468 -1 -471 -5z"/>
<path d="M6970 570 l0 -430 1975 0 1975 0 0 430 0 430 -1975 0 -1975 0 0 -430z"/>
</g>
</svg>
